<svg width="18" height="18" fill="none" xmlns="http://www.w3.org/2000/svg"><path d="M17.143 8.857A8.574 8.574 0 008.57.286a8.574 8.574 0 00-3.437 16.428c-.022-.602-.011-1.328.145-1.975 0 0 .167-.692 1.105-4.665-.28-.547-.28-1.362-.28-1.362 0-1.272.738-2.22 1.653-2.22.781 0 1.16.59 1.16 1.294 0 .781-.502 1.953-.759 3.035-.212.916.458 1.652 1.35 1.652 1.63 0 2.724-2.087 2.724-4.553 0-1.887-1.272-3.293-3.571-3.293-2.6 0-4.219 1.942-4.219 4.107 0 .748.223 1.273.57 1.686.155.19.178.256.122.48-.045.156-.134.535-.179.68-.055.224-.234.302-.424.224-1.194-.492-1.752-1.808-1.752-3.282 0-2.433 2.054-5.357 6.116-5.357 3.281 0 5.435 2.377 5.435 4.91 0 3.371-1.875 5.883-4.631 5.883-.927 0-1.797-.503-2.087-1.072a415.579 415.579 0 01-.603 2.355c-.179.659-.547 1.317-.87 1.83a8.386 8.386 0 002.432.358 8.574 8.574 0 008.572-8.572z" fill="#fff"/></svg>