<svg width="19" height="15" fill="none" xmlns="http://www.w3.org/2000/svg"><path d="M18.08 2.41a7.22 7.22 0 01-2.075.559A3.596 3.596 0 0017.588.982a7.097 7.097 0 01-2.288.87A3.596 3.596 0 0012.667.715 3.603 3.603 0 009.063 4.32c0 .28.033.558.089.826a10.247 10.247 0 01-7.433-3.772 3.578 3.578 0 00-.491 1.819c0 1.25.636 2.355 1.607 3.002a3.631 3.631 0 01-1.63-.457v.044A3.605 3.605 0 004.096 9.32a3.811 3.811 0 01-.949.123c-.234 0-.457-.022-.68-.056a3.611 3.611 0 003.37 2.5 7.22 7.22 0 01-4.475 1.54 7.45 7.45 0 01-.87-.044A10.187 10.187 0 006.026 15c6.63 0 10.256-5.491 10.256-10.257 0-.156 0-.312-.01-.468A7.751 7.751 0 0018.08 2.41z" fill="#fff"/></svg>